<svg width="140" height="22" viewBox="0 0 140 22" fill="none" xmlns="http://www.w3.org/2000/svg">
<path d="M0.974355 14.0458C0.875469 13.8398 0.826026 13.642 0.826026 13.4525C0.826026 13.3041 0.858988 13.1682 0.924912 13.0446C0.990836 12.9127 1.07324 12.8015 1.17213 12.7108C1.27925 12.6202 1.39462 12.5501 1.51823 12.5007C1.65008 12.443 1.7778 12.4142 1.90141 12.4142C2.23103 12.4142 2.56889 12.6325 2.91499 13.0693C3.26109 13.6626 3.74316 14.1282 4.3612 14.466C4.98748 14.8039 5.70028 14.9728 6.49961 14.9728C6.9034 14.9728 7.29894 14.9152 7.68624 14.7998C8.08179 14.6844 8.43201 14.5155 8.73691 14.293C9.05005 14.0705 9.30138 13.7944 9.49091 13.4648C9.68869 13.1352 9.78757 12.7561 9.78757 12.3276C9.78757 11.9074 9.68869 11.5613 9.49091 11.2893C9.30138 11.0092 9.05005 10.7743 8.73691 10.5848C8.42377 10.3952 8.06943 10.2387 7.67388 10.1151C7.28658 9.99145 6.89516 9.87197 6.49961 9.7566C5.79093 9.60827 5.11933 9.41462 4.48481 9.17564C3.85029 8.93667 3.29406 8.63589 2.81611 8.27331C2.33816 7.91073 1.9591 7.4781 1.67892 6.97543C1.39874 6.47276 1.25865 5.88356 1.25865 5.20784C1.25865 4.52388 1.40286 3.90172 1.69128 3.34137C1.98794 2.78102 2.37524 2.30307 2.85319 1.90752C3.33938 1.51198 3.89149 1.20708 4.50953 0.992827C5.12757 0.778574 5.76621 0.671447 6.42545 0.671447C6.92812 0.671447 7.41431 0.72501 7.88402 0.832137C8.36196 0.931023 8.80695 1.07935 9.21898 1.27712C9.631 1.4749 10.0059 1.72211 10.3438 2.01877C10.6899 2.31543 10.9783 2.65741 11.2091 3.04471C11.2832 3.1848 11.3203 3.32489 11.3203 3.46498C11.3203 3.73691 11.2214 3.97177 11.0236 4.16954C10.8341 4.36731 10.591 4.4662 10.2944 4.4662C10.0554 4.4662 9.83289 4.39203 9.62688 4.2437C9.38791 3.99649 9.15305 3.78636 8.92232 3.61331C8.69982 3.44026 8.46497 3.30017 8.21776 3.19304C7.97054 3.07767 7.70272 2.99527 7.41431 2.94583C7.12589 2.88814 6.80863 2.8593 6.46253 2.8593C6.08347 2.8593 5.71264 2.91286 5.35006 3.01999C4.98748 3.11888 4.6661 3.2672 4.38592 3.46498C4.10575 3.66275 3.87913 3.90996 3.70608 4.20662C3.53303 4.49504 3.44651 4.82466 3.44651 5.19548C3.44651 5.59927 3.55363 5.93713 3.76789 6.20906C3.98214 6.47276 4.26232 6.69525 4.60842 6.87654C4.95452 7.04959 5.35006 7.19792 5.79505 7.32153C6.24004 7.4369 6.69738 7.54815 7.16709 7.65527C7.76865 7.82832 8.35784 8.03433 8.93468 8.27331C9.51151 8.50404 10.0224 8.79658 10.4674 9.15092C10.9206 9.50526 11.2832 9.92965 11.5552 10.4241C11.8271 10.9185 11.9631 11.5159 11.9631 12.2164C11.9631 12.9333 11.8147 13.5967 11.5181 14.2065C11.2297 14.808 10.8341 15.3313 10.3314 15.7763C9.82877 16.213 9.23958 16.555 8.56386 16.8022C7.89638 17.0412 7.17945 17.1607 6.41309 17.1607C5.79505 17.1607 5.19761 17.0824 4.62078 16.9258C4.05218 16.761 3.52891 16.5385 3.05096 16.2584C2.58125 15.9782 2.16511 15.6486 1.80253 15.2695C1.44818 14.8904 1.17213 14.4825 0.974355 14.0458ZM13.8172 6.15962C13.8172 5.85472 13.9202 5.59927 14.1262 5.39325C14.3404 5.179 14.6 5.07187 14.9049 5.07187C15.2016 5.07187 15.457 5.179 15.6713 5.39325C15.8855 5.59927 15.9927 5.85472 15.9927 6.15962V11.4006C16.0009 11.895 16.0957 12.3606 16.277 12.7973C16.4665 13.2259 16.7178 13.6008 17.031 13.9222C17.3524 14.2436 17.7273 14.499 18.1558 14.6885C18.5843 14.8698 19.0499 14.9605 19.5526 14.9605C20.0552 14.9605 20.5085 14.8657 20.9122 14.6762C21.3243 14.4866 21.6745 14.2271 21.9629 13.8975C22.2513 13.5678 22.4738 13.1846 22.6304 12.7479C22.7952 12.3029 22.8776 11.8291 22.8776 11.3264V6.15962C22.8776 6.01129 22.9064 5.8712 22.9641 5.73936C23.0301 5.60751 23.1125 5.49214 23.2113 5.39325C23.3102 5.29437 23.4256 5.21608 23.5574 5.1584C23.6975 5.10072 23.8417 5.07187 23.9901 5.07187C24.3032 5.07187 24.5587 5.179 24.7564 5.39325C24.9625 5.59927 25.0655 5.85472 25.0655 6.15962V11.277V11.3388C25.0655 12.1381 24.9254 12.8921 24.6452 13.6008C24.3733 14.3012 23.9942 14.9152 23.508 15.4425C23.0218 15.9699 22.4409 16.3861 21.7651 16.691C21.0894 16.9959 20.3519 17.1483 19.5526 17.1483C18.745 17.1483 17.991 16.9959 17.2905 16.691C16.5983 16.3861 15.9927 15.9699 15.4735 15.4425C14.9626 14.9152 14.5588 14.3012 14.2622 13.6008C13.9655 12.8921 13.8172 12.1381 13.8172 11.3388V6.15962ZM27.2657 1.84572C27.2657 1.68915 27.2945 1.54494 27.3522 1.41309C27.4099 1.273 27.4882 1.15352 27.5871 1.05463C27.6859 0.947504 27.8013 0.865099 27.9332 0.807415C28.065 0.749732 28.2092 0.72089 28.3658 0.72089C28.6789 0.72089 28.9344 0.832137 29.1321 1.05463C29.3382 1.26888 29.4412 1.53258 29.4412 1.84572V7.38334C29.5895 7.05372 29.7955 6.74882 30.0592 6.46864C30.3311 6.18022 30.636 5.93301 30.9739 5.72699C31.32 5.52098 31.6908 5.36029 32.0864 5.24493C32.4902 5.12956 32.8981 5.07187 33.3101 5.07187C34.1424 5.07187 34.9252 5.23256 35.6586 5.55394C36.392 5.86708 37.0307 6.29971 37.5745 6.85182C38.1184 7.3957 38.5469 8.03433 38.8601 8.76774C39.1732 9.50114 39.3298 10.284 39.3298 11.1163C39.3298 11.9486 39.1732 12.7314 38.8601 13.4648C38.5469 14.19 38.1184 14.8245 37.5745 15.3684C37.0307 15.9123 36.392 16.3449 35.6586 16.6663C34.9252 16.9794 34.1424 17.136 33.3101 17.136C32.4778 17.136 31.6949 16.9794 30.9615 16.6663C30.2281 16.3449 29.5854 15.9123 29.0333 15.3684C28.4894 14.8245 28.0568 14.19 27.7354 13.4648C27.4222 12.7314 27.2657 11.9486 27.2657 11.1163V1.84572ZM29.4535 11.1163C29.4535 11.6437 29.5524 12.1422 29.7502 12.6119C29.9562 13.0734 30.2323 13.4772 30.5784 13.8233C30.9245 14.1694 31.3324 14.4454 31.8021 14.6515C32.2718 14.8492 32.7744 14.9481 33.3101 14.9481C33.8457 14.9481 34.3484 14.8492 34.8181 14.6515C35.2878 14.4454 35.6957 14.1694 36.0418 13.8233C36.3879 13.4772 36.6598 13.0734 36.8576 12.6119C37.0554 12.1422 37.1543 11.6437 37.1543 11.1163C37.1543 10.5806 37.0554 10.0821 36.8576 9.62063C36.6598 9.15092 36.3879 8.74302 36.0418 8.39692C35.6957 8.05082 35.2878 7.77888 34.8181 7.58111C34.3484 7.38334 33.8457 7.28445 33.3101 7.28445C32.7744 7.28445 32.2718 7.38334 31.8021 7.58111C31.3324 7.77888 30.9245 8.05082 30.5784 8.39692C30.2323 8.74302 29.9562 9.15092 29.7502 9.62063C29.5524 10.0821 29.4535 10.5806 29.4535 11.1163ZM46.4619 12.031H44.9292H44.2246C43.7302 12.031 43.2728 11.9362 42.8526 11.7467C42.4323 11.5489 42.0656 11.2893 41.7525 10.968C41.4476 10.6383 41.2086 10.2593 41.0356 9.83076C40.8625 9.40226 40.776 8.94903 40.776 8.47108C40.776 8.00137 40.8666 7.56051 41.0479 7.14848C41.2292 6.73646 41.4723 6.37799 41.7772 6.0731C42.0903 5.75996 42.457 5.51686 42.8773 5.34381C43.2976 5.16252 43.7467 5.07187 44.2246 5.07187H48.5138C48.8105 5.07187 49.0659 5.16252 49.2802 5.34381C49.4944 5.5251 49.6016 5.7888 49.6016 6.1349C49.6016 6.29147 49.5727 6.4398 49.515 6.57989C49.4656 6.71173 49.3914 6.83122 49.2925 6.93835C49.2019 7.03723 49.0948 7.11552 48.9712 7.1732C48.8475 7.23089 48.7157 7.25973 48.5756 7.25973H48.5138H44.237C44.0557 7.25973 43.8868 7.29681 43.7302 7.37097C43.5819 7.4369 43.45 7.53166 43.3347 7.65527C43.2193 7.77064 43.1286 7.90661 43.0627 8.06318C42.9968 8.21151 42.9638 8.3722 42.9638 8.54525C42.9638 8.73478 42.9968 8.90783 43.0627 9.0644C43.1286 9.22097 43.2193 9.35694 43.3347 9.4723C43.4583 9.57943 43.5942 9.66595 43.7426 9.73188C43.8991 9.7978 44.0639 9.83076 44.237 9.83076H44.9539H46.7215C47.2242 9.83076 47.6898 9.92965 48.1183 10.1274C48.5468 10.317 48.9135 10.5765 49.2184 10.9061C49.5315 11.2358 49.7746 11.619 49.9477 12.0557C50.1289 12.4924 50.2196 12.9498 50.2196 13.4277C50.2196 13.9139 50.1289 14.3754 49.9477 14.8121C49.7746 15.2407 49.5315 15.6197 49.2184 15.9493C48.9052 16.2707 48.5303 16.5262 48.0935 16.7157C47.665 16.9052 47.1994 17 46.6968 17H41.5671C41.2786 17 41.0397 16.897 40.8501 16.691C40.6606 16.485 40.5658 16.2172 40.5658 15.8875C40.5658 15.5579 40.6606 15.2983 40.8501 15.1088C41.0397 14.9193 41.2786 14.8245 41.5671 14.8245H46.5114C46.6927 14.8245 46.8739 14.7957 47.0552 14.738C47.2365 14.6721 47.4013 14.5773 47.5497 14.4537C47.698 14.3301 47.8175 14.1817 47.9081 14.0087C47.9988 13.8274 48.0441 13.6173 48.0441 13.3783C48.0441 13.1476 47.9988 12.9498 47.9081 12.785C47.8257 12.6202 47.7104 12.4842 47.562 12.3771C47.4219 12.27 47.2613 12.1875 47.08 12.1299C46.8987 12.0722 46.7133 12.0392 46.5237 12.031H46.499H46.4619ZM51.3568 11.1781C51.3568 10.3293 51.5133 9.53411 51.8265 8.79246C52.1396 8.05082 52.5681 7.40394 53.112 6.85182C53.6641 6.29971 54.3069 5.86708 55.0403 5.55394C55.7819 5.23256 56.5771 5.07187 57.4259 5.07187C58.217 5.07187 58.9669 5.21196 59.6756 5.49214C60.3925 5.77232 61.0105 6.17198 61.5297 6.69113C61.6615 6.83122 61.7604 6.97955 61.8263 7.13612C61.8923 7.29269 61.9252 7.44514 61.9252 7.59347C61.9252 7.75828 61.8881 7.91073 61.814 8.05082C61.7398 8.18266 61.645 8.29391 61.5297 8.38456C61.4225 8.4752 61.3031 8.54525 61.1712 8.59469C61.0476 8.64413 60.9322 8.66885 60.8251 8.66885C60.6438 8.66885 60.4708 8.62353 60.306 8.53289L59.4407 7.91485C59.0699 7.67587 58.7073 7.51518 58.353 7.43278C57.9986 7.34213 57.6237 7.29681 57.2281 7.29681C56.7172 7.31329 56.2393 7.42866 55.7943 7.64291C55.3493 7.85716 54.962 8.14146 54.6324 8.4958C54.311 8.8419 54.0555 9.24157 53.866 9.6948C53.6847 10.148 53.5941 10.6177 53.5941 11.1039C53.5941 11.5984 53.6847 12.0763 53.866 12.5378C54.0555 12.9992 54.3151 13.4071 54.6447 13.7615C54.9826 14.1076 55.3781 14.3878 55.8314 14.602C56.2846 14.8163 56.7831 14.9234 57.327 14.9234C57.6978 14.9234 58.0563 14.8822 58.4024 14.7998C58.7485 14.7091 59.0946 14.5443 59.4407 14.3054L60.306 13.6997C60.3884 13.6585 60.4749 13.6255 60.5655 13.6008C60.6562 13.5678 60.7468 13.5514 60.8375 13.5514C60.9446 13.5514 61.06 13.5761 61.1836 13.6255C61.3154 13.675 61.4349 13.7491 61.542 13.848C61.6492 13.9387 61.7357 14.0499 61.8016 14.1817C61.8758 14.3136 61.9129 14.4619 61.9129 14.6267C61.9129 14.7833 61.8799 14.9399 61.814 15.0964C61.7563 15.253 61.6615 15.3972 61.5297 15.5291C61.0188 16.0482 60.4007 16.4479 59.6756 16.7281C58.9586 17 58.2088 17.136 57.4259 17.136C56.5854 17.136 55.7984 16.9835 55.065 16.6786C54.3316 16.3655 53.6888 15.9411 53.1367 15.4055C52.5846 14.8698 52.1479 14.2394 51.8265 13.5143C51.5133 12.7891 51.3568 12.0104 51.3568 11.1781ZM63.5816 11.3882C63.5816 10.523 63.7464 9.70716 64.076 8.94079C64.4056 8.17442 64.8547 7.50694 65.4233 6.93835C65.9919 6.36151 66.6553 5.90829 67.4134 5.57867C68.1798 5.2408 68.9956 5.07187 69.8608 5.07187H69.9226C70.2935 5.07187 70.5736 5.17488 70.7632 5.38089C70.9609 5.58691 71.0598 5.84648 71.0598 6.15962C71.0598 6.47276 70.9486 6.73234 70.7261 6.93835C70.5036 7.14436 70.2358 7.24737 69.9226 7.24737H69.8608C69.3005 7.24737 68.7731 7.35861 68.2786 7.58111C67.7842 7.79536 67.3475 8.09202 66.9684 8.47108C66.5976 8.8419 66.3009 9.27865 66.0784 9.78132C65.8642 10.284 65.7571 10.8196 65.7571 11.3882V15.9123C65.7571 16.2254 65.654 16.485 65.448 16.691C65.2503 16.897 65.0031 17 64.7064 17C64.5581 17 64.4139 16.9753 64.2738 16.9258C64.1419 16.8682 64.0224 16.7899 63.9153 16.691C63.8164 16.5921 63.734 16.4767 63.6681 16.3449C63.6104 16.213 63.5816 16.0688 63.5816 15.9123V11.3882ZM72.4566 2.37723C72.4566 2.20418 72.4895 2.04349 72.5555 1.89516C72.6214 1.74683 72.7079 1.6191 72.815 1.51198C72.9304 1.39661 73.0623 1.30597 73.2106 1.24004C73.3672 1.17412 73.532 1.14116 73.705 1.14116C73.8781 1.14116 74.0388 1.17412 74.1871 1.24004C74.3354 1.30597 74.4673 1.39661 74.5826 1.51198C74.698 1.6191 74.7886 1.74683 74.8546 1.89516C74.9205 2.04349 74.9535 2.20418 74.9535 2.37723C74.9535 2.55028 74.9205 2.71097 74.8546 2.8593C74.7886 3.00763 74.698 3.13948 74.5826 3.25484C74.4673 3.36197 74.3354 3.4485 74.1871 3.51442C74.0388 3.58034 73.8781 3.61331 73.705 3.61331C73.532 3.61331 73.3672 3.58034 73.2106 3.51442C73.0623 3.4485 72.9304 3.36197 72.815 3.25484C72.7079 3.13948 72.6214 3.00763 72.5555 2.8593C72.4895 2.71097 72.4566 2.55028 72.4566 2.37723ZM72.5926 6.17198C72.5926 6.02365 72.6214 5.88356 72.6791 5.75172C72.7368 5.61163 72.815 5.49214 72.9139 5.39325C73.0211 5.29437 73.1405 5.21608 73.2724 5.1584C73.4125 5.10072 73.5608 5.07187 73.7174 5.07187C74.0223 5.07187 74.2736 5.179 74.4714 5.39325C74.6774 5.60751 74.7804 5.86708 74.7804 6.17198V15.9988C74.7804 16.3037 74.6733 16.5633 74.459 16.7775C74.253 16.9835 74.0017 17.0865 73.705 17.0865C73.4001 17.0865 73.1364 16.9835 72.9139 16.7775C72.6997 16.5633 72.5926 16.3037 72.5926 15.9988V6.17198ZM77.1784 1.84572C77.1784 1.68915 77.2072 1.54494 77.2649 1.41309C77.3226 1.273 77.4009 1.15352 77.4998 1.05463C77.5987 0.947504 77.714 0.865099 77.8459 0.807415C77.9777 0.749732 78.1219 0.72089 78.2785 0.72089C78.5916 0.72089 78.8471 0.832137 79.0449 1.05463C79.2509 1.26888 79.3539 1.53258 79.3539 1.84572V7.38334C79.5022 7.05372 79.7082 6.74882 79.9719 6.46864C80.2439 6.18022 80.5488 5.93301 80.8866 5.72699C81.2327 5.52098 81.6035 5.36029 81.9991 5.24493C82.4029 5.12956 82.8108 5.07187 83.2228 5.07187C84.0551 5.07187 84.8379 5.23256 85.5713 5.55394C86.3047 5.86708 86.9434 6.29971 87.4873 6.85182C88.0311 7.3957 88.4596 8.03433 88.7728 8.76774C89.0859 9.50114 89.2425 10.284 89.2425 11.1163C89.2425 11.9486 89.0859 12.7314 88.7728 13.4648C88.4596 14.19 88.0311 14.8245 87.4873 15.3684C86.9434 15.9123 86.3047 16.3449 85.5713 16.6663C84.8379 16.9794 84.0551 17.136 83.2228 17.136C82.3905 17.136 81.6077 16.9794 80.8743 16.6663C80.1409 16.3449 79.4981 15.9123 78.946 15.3684C78.4021 14.8245 77.9695 14.19 77.6481 13.4648C77.335 12.7314 77.1784 11.9486 77.1784 11.1163V1.84572ZM79.3662 11.1163C79.3662 11.6437 79.4651 12.1422 79.6629 12.6119C79.8689 13.0734 80.145 13.4772 80.4911 13.8233C80.8372 14.1694 81.2451 14.4454 81.7148 14.6515C82.1845 14.8492 82.6872 14.9481 83.2228 14.9481C83.7584 14.9481 84.2611 14.8492 84.7308 14.6515C85.2005 14.4454 85.6084 14.1694 85.9545 13.8233C86.3006 13.4772 86.5726 13.0734 86.7703 12.6119C86.9681 12.1422 87.067 11.6437 87.067 11.1163C87.067 10.5806 86.9681 10.0821 86.7703 9.62063C86.5726 9.15092 86.3006 8.74302 85.9545 8.39692C85.6084 8.05082 85.2005 7.77888 84.7308 7.58111C84.2611 7.38334 83.7584 7.28445 83.2228 7.28445C82.6872 7.28445 82.1845 7.38334 81.7148 7.58111C81.2451 7.77888 80.8372 8.05082 80.4911 8.39692C80.145 8.74302 79.8689 9.15092 79.6629 9.62063C79.4651 10.0821 79.3662 10.5806 79.3662 11.1163ZM92.7653 12.1051C92.8559 12.5254 93.0125 12.9168 93.235 13.2794C93.4575 13.6338 93.7294 13.9428 94.0508 14.2065C94.3722 14.4702 94.7307 14.6762 95.1262 14.8245C95.53 14.9728 95.9544 15.047 96.3994 15.047C96.8279 15.047 97.1822 15.0099 97.4624 14.9358C97.7426 14.8533 98.0227 14.7297 98.3029 14.5649C98.5336 14.4331 98.752 14.3672 98.958 14.3672C99.1064 14.3672 99.2423 14.4001 99.3659 14.466C99.4978 14.5237 99.6132 14.6061 99.712 14.7133C99.8109 14.8121 99.8892 14.9316 99.9469 15.0717C100.005 15.2118 100.033 15.356 100.033 15.5043C100.033 15.768 99.9345 16.0029 99.7368 16.2089C99.539 16.4067 99.2712 16.5756 98.9333 16.7157C98.6037 16.8558 98.2164 16.9629 97.7714 17.0371C97.3347 17.1112 96.8773 17.1483 96.3994 17.1483C95.5671 17.1483 94.7801 16.9918 94.0385 16.6786C93.305 16.3572 92.6623 15.9246 92.1102 15.3807C91.5663 14.8369 91.1337 14.1982 90.8123 13.4648C90.4992 12.7314 90.3426 11.9486 90.3426 11.1163C90.3426 10.2758 90.4992 9.48878 90.8123 8.75538C91.1337 8.02197 91.5663 7.38334 92.1102 6.83946C92.6623 6.29559 93.305 5.86708 94.0385 5.55394C94.7801 5.23256 95.5671 5.07187 96.3994 5.07187C97.2234 5.07187 98.0021 5.22844 98.7355 5.54158C99.4689 5.85472 100.108 6.28323 100.651 6.8271C101.204 7.37097 101.64 8.00961 101.962 8.74302C102.283 9.46818 102.448 10.2428 102.456 11.0668C102.456 11.3635 102.357 11.6107 102.159 11.8085C101.962 12.0063 101.706 12.1051 101.393 12.1051H92.7653ZM100.219 10.2758C100.145 9.83076 99.9922 9.41874 99.7615 9.03968C99.539 8.66061 99.2588 8.33099 98.9209 8.05082C98.5913 7.77064 98.2123 7.55227 97.7838 7.3957C97.3635 7.23913 96.9144 7.16084 96.4364 7.16084C95.9502 7.16084 95.497 7.24325 95.0768 7.40806C94.6565 7.56463 94.2815 7.78712 93.9519 8.07554C93.6223 8.35571 93.3504 8.68533 93.1361 9.0644C92.9219 9.44346 92.7777 9.84725 92.7035 10.2758H100.219Z" fill="#2D3142"/>
<g clip-path="url(#clip0_9_99)">
<rect x="105.644" width="34.3558" height="21.4724" rx="1.71779" fill="#F2AF29"/>
<path d="M109.031 9.29925V9.13856C109.031 8.57821 109.138 8.05082 109.353 7.55639C109.567 7.06196 109.855 6.63345 110.218 6.27087C110.589 5.90005 111.017 5.60751 111.503 5.39325C111.998 5.179 112.525 5.07187 113.086 5.07187C113.679 5.07187 114.227 5.19136 114.73 5.43034C115.24 5.66107 115.685 5.97833 116.064 6.38211C116.435 5.97833 116.872 5.66107 117.375 5.43034C117.886 5.19136 118.438 5.07187 119.031 5.07187C119.591 5.07187 120.123 5.179 120.626 5.39325C121.128 5.60751 121.565 5.90005 121.936 6.27087C122.315 6.63345 122.616 7.06196 122.838 7.55639C123.061 8.05082 123.172 8.57821 123.172 9.13856V15.9123C123.172 16.2254 123.065 16.485 122.851 16.691C122.636 16.897 122.381 17 122.084 17C121.779 17 121.52 16.897 121.305 16.691C121.099 16.485 120.996 16.2254 120.996 15.9123V9.26217C120.996 8.99847 120.943 8.75126 120.836 8.52052C120.737 8.28155 120.597 8.07554 120.415 7.90249C120.242 7.7212 120.036 7.58111 119.797 7.48222C119.558 7.37509 119.307 7.32153 119.043 7.32153C118.796 7.32153 118.561 7.36685 118.339 7.4575C118.125 7.54815 117.931 7.67587 117.758 7.84068C117.593 7.99725 117.457 8.18266 117.35 8.39692C117.251 8.61117 117.193 8.83778 117.177 9.07676C117.185 9.10148 117.189 9.15092 117.189 9.22509V11.7467C117.189 11.9033 117.16 12.0475 117.103 12.1793C117.045 12.3112 116.967 12.4265 116.868 12.5254C116.769 12.6243 116.654 12.7026 116.522 12.7603C116.39 12.8179 116.25 12.8468 116.102 12.8468C115.797 12.8468 115.537 12.7438 115.323 12.5378C115.117 12.3235 115.014 12.0598 115.014 11.7467V9.27453C115.014 9.00259 114.964 8.75126 114.865 8.52052C114.767 8.28155 114.631 8.07142 114.458 7.89013C114.293 7.70884 114.095 7.56875 113.864 7.46986C113.634 7.36273 113.386 7.30917 113.123 7.30917C112.875 7.30917 112.645 7.35449 112.43 7.44514C112.216 7.52754 112.023 7.64291 111.849 7.79124C111.685 7.93957 111.545 8.11674 111.429 8.32275C111.322 8.52052 111.252 8.73478 111.219 8.96551C111.227 9.00671 111.231 9.0438 111.231 9.07676C111.24 9.10148 111.244 9.13444 111.244 9.17564L111.207 15.9123C111.207 16.2254 111.1 16.485 110.885 16.691C110.671 16.897 110.42 17 110.131 17C109.826 17 109.567 16.897 109.353 16.691C109.138 16.485 109.031 16.2254 109.031 15.9123V9.29925ZM127.127 12.1051C127.218 12.5254 127.375 12.9168 127.597 13.2794C127.82 13.6338 128.091 13.9428 128.413 14.2065C128.734 14.4702 129.093 14.6762 129.488 14.8245C129.892 14.9728 130.316 15.047 130.761 15.047C131.19 15.047 131.544 15.0099 131.824 14.9358C132.105 14.8533 132.385 14.7297 132.665 14.5649C132.896 14.4331 133.114 14.3672 133.32 14.3672C133.468 14.3672 133.604 14.4001 133.728 14.466C133.86 14.5237 133.975 14.6061 134.074 14.7133C134.173 14.8121 134.251 14.9316 134.309 15.0717C134.367 15.2118 134.395 15.356 134.395 15.5043C134.395 15.768 134.297 16.0029 134.099 16.2089C133.901 16.4067 133.633 16.5756 133.295 16.7157C132.966 16.8558 132.578 16.9629 132.133 17.0371C131.697 17.1112 131.239 17.1483 130.761 17.1483C129.929 17.1483 129.142 16.9918 128.401 16.6786C127.667 16.3572 127.024 15.9246 126.472 15.3807C125.928 14.8369 125.496 14.1982 125.174 13.4648C124.861 12.7314 124.705 11.9486 124.705 11.1163C124.705 10.2758 124.861 9.48878 125.174 8.75538C125.496 8.02197 125.928 7.38334 126.472 6.83946C127.024 6.29559 127.667 5.86708 128.401 5.55394C129.142 5.23256 129.929 5.07187 130.761 5.07187C131.585 5.07187 132.364 5.22844 133.098 5.54158C133.831 5.85472 134.47 6.28323 135.014 6.8271C135.566 7.37097 136.002 8.00961 136.324 8.74302C136.645 9.46818 136.81 10.2428 136.818 11.0668C136.818 11.3635 136.719 11.6107 136.522 11.8085C136.324 12.0063 136.068 12.1051 135.755 12.1051H127.127ZM134.581 10.2758C134.507 9.83076 134.354 9.41874 134.124 9.03968C133.901 8.66061 133.621 8.33099 133.283 8.05082C132.953 7.77064 132.574 7.55227 132.146 7.3957C131.726 7.23913 131.276 7.16084 130.799 7.16084C130.312 7.16084 129.859 7.24325 129.439 7.40806C129.019 7.56463 128.644 7.78712 128.314 8.07554C127.984 8.35571 127.712 8.68533 127.498 9.0644C127.284 9.44346 127.14 9.84725 127.066 10.2758H134.581Z" fill="white"/>
<path d="M115.092 10.7438H117.239V15.3389C117.239 15.9318 116.759 16.4125 116.166 16.4125C115.573 16.4125 115.092 15.9318 115.092 15.3389V10.7438Z" fill="white"/>
</g>
<defs>
<clipPath id="clip0_9_99">
<rect x="105.644" width="34.3558" height="21.4724" rx="1.71779" fill="white"/>
</clipPath>
</defs>
</svg>
